<?xml version="1.0" encoding="UTF-8"?>
<svg width="35px" height="35px" viewBox="0 0 35 35" version="1.1" xmlns="http://www.w3.org/2000/svg" xmlns:xlink="http://www.w3.org/1999/xlink">
    <!-- Generator: sketchtool 58 (101010) - https://sketch.com -->
    <title>2CADA29D-F96C-4307-9DFD-7A2738C6CDA8</title>
    <desc>Created with sketchtool.</desc>
    <g id="Page-1" stroke="none" stroke-width="1" fill="none" fill-rule="evenodd">
        <g id="HOME-Bravacasa" transform="translate(-1229.000000, -6260.000000)">
            <g id="Group-4" transform="translate(1229.000000, 6260.000000)">
                <circle id="Oval" fill="#BD252C" cx="17.5" cy="17.5" r="17.5"></circle>
                <path d="M18.0560415,7.99881857 C20.1333972,8.00050479 20.4810304,8.01310675 21.4164304,8.05578633 C22.4276684,8.10190941 23.1183077,8.26252934 23.7226218,8.49740629 C24.3473764,8.74016526 24.8772072,9.06502558 25.4054163,9.593197 C25.9335878,10.1214061 26.2584481,10.6512369 26.5012448,11.2759915 C26.736084,11.8803056 26.8967039,12.5709449 26.942827,13.582183 C26.9890632,14.5955329 27,14.9190733 27,17.4993255 C27,20.0795401 26.9890632,20.4030804 26.942827,21.4164304 C26.8967039,22.4276684 26.736084,23.1183077 26.5012448,23.7226218 C26.2584481,24.3473764 25.9335878,24.8772072 25.4054163,25.4054163 C24.8772072,25.9335878 24.3473764,26.2584481 23.7226218,26.5012448 C23.1183077,26.736084 22.4276684,26.8967039 21.4164304,26.942827 C20.5589804,26.9819499 20.1954178,26.9957993 18.5406857,26.9991347 L16.4579505,26.9991347 C14.8031955,26.9957993 14.4396329,26.9819499 13.582183,26.942827 C12.5709449,26.8967039 11.8803056,26.736084 11.2759915,26.5012448 C10.6512369,26.2584481 10.1214061,25.9335878 9.593197,25.4054163 C9.06502558,24.8772072 8.74016526,24.3473764 8.49740629,23.7226218 C8.26252934,23.1183077 8.10190941,22.4276684 8.05578633,21.4164304 C8.01310675,20.4810304 8.00050479,20.1333972 7.99881857,18.0560415 L7.99881857,16.9426015 C8.00050479,14.8652161 8.01310675,14.5175829 8.05578633,13.582183 C8.10190941,12.5709449 8.26252934,11.8803056 8.49740629,11.2759915 C8.74016526,10.6512369 9.06502558,10.1214061 9.593197,9.593197 C10.1214061,9.06502558 10.6512369,8.74016526 11.2759915,8.49740629 C11.8803056,8.26252934 12.5709449,8.10190941 13.582183,8.05578633 C14.4750647,8.01504673 14.8323987,8.00171256 16.6698256,7.99911796 L16.9426015,7.99881857 L18.0560415,7.99881857 Z M18.292632,9.71087447 L16.7060074,9.71087447 C14.8838361,9.71316309 14.5464276,9.72541319 13.6602113,9.7658474 C12.7339031,9.80808603 12.2308485,9.96286043 11.8960697,10.0929705 C11.4526018,10.2653192 11.1361138,10.4711948 10.8036731,10.8036731 C10.4711948,11.1361138 10.2653192,11.4526018 10.0929705,11.8960697 C9.96286043,12.2308485 9.80808603,12.7339031 9.7658474,13.6602113 C9.72541319,14.5464276 9.71316309,14.8838361 9.71087447,16.7060074 L9.71087447,18.292632 C9.71316309,20.1147772 9.72541319,20.4521857 9.7658474,21.3384021 C9.80808603,22.2647103 9.96286043,22.7677648 10.0929705,23.1025436 C10.2653192,23.5460115 10.4712325,23.8624996 10.8036731,24.1949402 C11.1361138,24.5274185 11.4526018,24.7332941 11.8960697,24.9056428 C12.2308485,25.0357529 12.7339031,25.1905273 13.6602113,25.2327659 C14.6233811,25.2767162 14.9381834,25.2873676 17.2163538,25.2881219 L17.7822933,25.2881219 C20.0604328,25.2873676 20.3752685,25.2767162 21.3384021,25.2327659 C22.2647103,25.1905273 22.7677648,25.0357529 23.1025436,24.9056428 C23.5460115,24.7332941 23.8624996,24.5274185 24.1949402,24.1949402 C24.5274185,23.8624996 24.7332941,23.5460115 24.9056428,23.1025436 C25.0357529,22.7677648 25.1905273,22.2647103 25.2327659,21.3384021 C25.2767162,20.3751234 25.2873676,20.0602473 25.2881219,17.7822725 L25.2881219,17.2163744 C25.2873676,14.9383661 25.2767162,14.6234899 25.2327659,13.6602113 C25.1905273,12.7339031 25.0357529,12.2308485 24.9056428,11.8960697 C24.7332941,11.4526018 24.5274185,11.1361138 24.1949402,10.8036731 C23.8624996,10.4711948 23.5460115,10.2653192 23.1025436,10.0929705 C22.7677648,9.96286043 22.2647103,9.80808603 21.3384021,9.7658474 C20.4521857,9.72541319 20.1147772,9.71316309 18.292632,9.71087447 Z M17.4993255,12.6205753 C20.1937729,12.6205753 22.378038,14.8048404 22.378038,17.4993255 C22.378038,20.1937729 20.1937729,22.378038 17.4993255,22.378038 C14.8048404,22.378038 12.6205753,20.1937729 12.6205753,17.4993255 C12.6205753,14.8048404 14.8048404,12.6205753 17.4993255,12.6205753 Z M17.4993255,14.3324089 C15.7502692,14.3324089 14.3324089,15.7502692 14.3324089,17.4993255 C14.3324089,19.2483442 15.7502692,20.6662044 17.4993255,20.6662044 C19.2483442,20.6662044 20.6662044,19.2483442 20.6662044,17.4993255 C20.6662044,15.7502692 19.2483442,14.3324089 17.4993255,14.3324089 Z M22.5707895,11.2877203 C23.2004468,11.2877203 23.710893,11.7981666 23.710893,12.4278239 C23.710893,13.0574811 23.2004468,13.5678897 22.5707895,13.5678897 C21.9411699,13.5678897 21.4307236,13.0574811 21.4307236,12.4278239 C21.4307236,11.7981666 21.9411699,11.2877203 22.5707895,11.2877203 Z" id="Instagram-Copy" fill="#FFFFFF"></path>
            </g>
        </g>
    </g>
</svg>