<?xml version="1.0" encoding="UTF-8"?>
<svg width="35px" height="35px" viewBox="0 0 35 35" version="1.1" xmlns="http://www.w3.org/2000/svg" xmlns:xlink="http://www.w3.org/1999/xlink">
    <!-- Generator: sketchtool 58 (101010) - https://sketch.com -->
    <title>B75DB989-32F5-4D7F-A352-B671B503EE0C</title>
    <desc>Created with sketchtool.</desc>
    <g id="Page-1" stroke="none" stroke-width="1" fill="none" fill-rule="evenodd">
        <g id="HOME-Bravacasa" transform="translate(-1315.000000, -6260.000000)">
            <g id="Group-6" transform="translate(1315.000000, 6260.000000)">
                <circle id="Oval-Copy-5" fill="#BD252C" cx="17.5" cy="17.5" r="17.5"></circle>
                <path d="M13.2708988,22.8721951 C11.1622111,22.8216143 9.31691863,21.4856463 8.67001886,19.5412171 C9.37051784,19.6914882 10.096484,19.6914882 10.796983,19.5412171 L10.796983,19.5412171 C9.45770646,19.2364327 8.30992442,18.4053665 7.62916405,17.2475174 C7.13653311,16.4814919 6.88492985,15.5930911 6.90509114,14.6908457 C7.58127564,15.0513346 8.33600347,15.2515942 9.10747957,15.2752278 C8.07214559,14.5851574 7.34464799,13.5413422 7.07102451,12.3533174 C6.79440005,11.1724585 6.99405874,9.93385961 7.62916405,8.89085345 C10.1417667,11.8912268 13.8441325,13.7265163 17.8265242,13.9457586 C17.8265242,13.7558344 17.8265242,13.5951293 17.7510999,13.4198147 C17.4729027,11.3808086 18.5692226,9.39726968 20.4754497,8.49072992 C22.3816769,7.58419015 24.672626,7.95685381 26.1684475,9.41679733 C26.2330302,9.48577991 26.3320289,9.51397975 26.42489,9.4898451 C27.4366662,9.28146325 28.4087316,8.92164698 29.3060968,8.42334777 L29.3060968,8.42334777 L29.3060968,8.42334777 C28.9456447,9.49412047 28.2159751,10.4122872 27.239472,11.0238481 C28.1916449,10.9213487 29.1223411,10.6799979 30,10.30798 L30,10.30798 L29.5021999,11.0238481 C28.9789722,11.6460272 28.3757099,12.2008235 27.7071025,12.6747275 C27.6563767,12.7064987 27.6274866,12.7624584 27.6316782,12.820823 C27.6606592,13.5330215 27.6303918,14.2463238 27.5411691,14.9538177 C27.3490172,16.4324619 26.9162512,17.8722976 26.2589566,19.219807 C25.593084,20.616494 24.6906195,21.8954408 23.5889378,23.0036811 C21.7523223,24.8592683 19.3818853,26.1369464 16.7856694,26.6706787 C15.8779777,26.8616558 14.9537065,26.9692693 14.0251414,26.9920889 C11.2371472,27.0844058 8.48436138,26.3670145 6.12067882,24.932142 L6,24.8590942 C7.67275004,25.0338422 9.36400112,24.7976943 10.9176618,24.1724452 C11.7601667,23.8460702 12.5520674,23.4085159 13.2708988,22.8721951 Z" id="Path-Copy-2" fill="#FFFFFF"></path>
            </g>
        </g>
    </g>
</svg>