<?xml version="1.0" encoding="UTF-8"?>
<svg width="17px" height="17px" viewBox="0 0 17 17" version="1.1" xmlns="http://www.w3.org/2000/svg" xmlns:xlink="http://www.w3.org/1999/xlink">
    <!-- Generator: sketchtool 58 (101010) - https://sketch.com -->
    <title>8C672EC0-7DEA-4902-AC6E-3767595EBDF0</title>
    <desc>Created with sketchtool.</desc>
    <g id="Page-1" stroke="none" stroke-width="1" fill="none" fill-rule="evenodd">
        <g id="HOME-Bravacasa" transform="translate(-1213.000000, -105.000000)" fill="#000000" fill-rule="nonzero">
            <g id="Group-8" transform="translate(0.000000, 85.000000)">
                <g id="Group-7" transform="translate(1213.000000, 15.000000)">
                    <path d="M10.6550362,17.2433927 C9.55211275,18.0293733 8.20261034,18.4916773 6.7451421,18.4916773 C3.01990279,18.4916773 0,15.4714627 0,11.7458387 C0,8.02021466 3.01990279,5 6.7451421,5 C10.4703814,5 13.4902842,8.02021466 13.4902842,11.7458387 C13.4902842,13.2034574 13.0280279,14.5530992 12.2421285,15.6561366 L16.6739259,20.0883916 C17.1105358,20.5250466 17.1068955,21.2237171 16.6737679,21.6568895 L16.6551695,21.6754898 C16.2231498,22.1075541 15.519874,22.1087328 15.0868336,21.6756478 L10.6550362,17.2433927 L10.6550362,17.2433927 Z M6.7451421,16.9044212 C9.59385454,16.9044212 11.9031919,14.5948453 11.9031919,11.7458387 C11.9031919,8.89683203 9.59385454,6.58725616 6.7451421,6.58725616 C3.89642965,6.58725616 1.58709226,8.89683203 1.58709226,11.7458387 C1.58709226,14.5948453 3.89642965,16.9044212 6.7451421,16.9044212 L6.7451421,16.9044212 Z" id="search"></path>
                </g>
            </g>
        </g>
    </g>
</svg>